<svg aria-hidden="true" role="img" xmlns="http://www.w3.org/2000/svg" fill="#000000" viewBox="0 0 416 415.98"><defs></defs><g id="Layer_2" data-name="Layer 2"><g id="expanded"><path d="M205.87 416c-1.37 0-2.74 0-4.11-.08l.36-12c1.28 0 2.58.06 3.87.08Zm8.21-.08-.34-12c1.29 0 2.58-.09 3.86-.16l.59 12c-1.37.05-2.74.1-4.11.14Zm-20.52-.41c-1.37-.09-2.74-.2-4.1-.32l1.06-11.95c1.28.11 2.57.21 3.86.3Zm32.82-.3-1-12c1.29-.11 2.58-.24 3.86-.37l1.28 11.93c-1.41.16-2.77.3-4.14.42Zm-45.08-.9c-1.36-.17-2.72-.36-4.08-.56l1.78-11.89c1.27.19 2.55.36 3.83.53Zm57.32-.54-1.75-11.87c1.28-.19 2.55-.39 3.82-.6l2 11.83c-1.36.2-2.69.42-4.07.62Zm-69.5-1.39c-1.35-.26-2.69-.53-4-.81l2.46-11.74c1.27.27 2.54.52 3.81.76Zm81.63-.77-2.45-11.75c1.26-.26 2.53-.54 3.78-.83l2.69 11.7c-1.33.27-2.67.58-4.02.86Zm-93.67-1.88c-1.33-.34-2.65-.68-4-1l3.16-11.58c1.24.34 2.49.67 3.74 1Zm105.66-1-3.15-11.58c1.25-.34 2.49-.69 3.73-1.06l3.38 11.52c-1.32.39-2.64.74-3.96 1.1Zm-117.52-2.36c-1.3-.42-2.61-.84-3.9-1.28l3.84-11.37c1.22.41 2.45.81 3.68 1.2Zm129.32-1.23-3.84-11.37c1.22-.42 2.45-.84 3.66-1.28l4.07 11.29c-1.29.44-2.59.9-3.89 1.34Zm-141-2.84c-1.28-.49-2.55-1-3.82-1.51l4.52-11.12c1.19.49 2.4 1 3.6 1.43Zm152.55-1.47-4.51-11.11c1.19-.49 2.39-1 3.58-1.5l4.73 11c-1.22.55-2.49 1.08-3.76 1.59Zm-163.9-3.27c-1.24-.57-2.48-1.14-3.71-1.73l5.2-10.83 3.51 1.63Zm175.2-1.71L292.27 385c1.16-.56 2.32-1.12 3.48-1.7l5.39 10.7c-1.23.64-2.47 1.24-3.71 1.83Zm-186.24-3.7c-1.21-.64-2.41-1.29-3.61-1.95l5.8-10.5c1.13.62 2.26 1.23 3.4 1.83Zm197.23-1.94-5.8-10.51c1.13-.62 2.26-1.26 3.38-1.91l6 10.39c-1.15.67-2.34 1.34-3.54 2.01Zm-207.94-4.11c-1.17-.71-2.33-1.43-3.49-2.16l6.41-10.14 3.29 2ZM319 383.9l-6.41-10.14c1.09-.69 2.18-1.4 3.25-2.11l6.61 10c-1.1.77-2.25 1.52-3.45 2.25Zm-228.9-4.5-3.31-2.4 7-9.75c1 .75 2.1 1.49 3.16 2.23Zm239.17-2.4-7-9.75c1.05-.75 2.09-1.52 3.13-2.29l7.19 9.61c-1.1.82-2.21 1.63-3.32 2.43Zm-249.06-4.88c-1.07-.84-2.15-1.7-3.21-2.56l7.56-9.32c1 .82 2 1.62 3 2.41Zm258.85-2.61-7.56-9.32c1-.81 2-1.63 3-2.47l7.75 9.17c-1.07.88-2.12 1.76-3.19 2.62Zm-268.33-5.25c-1-.9-2-1.82-3.06-2.74l8.1-8.85q1.42 1.31 2.88 2.58Zm277.67-2.8-8.1-8.86c.95-.87 1.89-1.75 2.83-2.64l8.27 8.69c-.99.95-1.99 1.88-3 2.81Zm-286.68-5.6c-1-1-1.94-1.94-2.89-2.92l8.6-8.36c.9.93 1.81 1.84 2.73 2.75Zm295.52-3-8.61-8.36c.9-.92 1.79-1.86 2.67-2.8l8.77 8.19c-.93 1.01-1.88 2-2.83 2.98Zm-304-5.93c-.92-1-1.82-2.05-2.72-3.08l9.06-7.85c.85 1 1.7 1.95 2.56 2.91Zm312.34-3.15-9.11-7.78c.84-1 1.68-2 2.5-3l9.24 7.66a367.3 367.3 0 0 1-2.65 3.13Zm-320.33-6.25c-.85-1.07-1.69-2.15-2.53-3.24l9.53-7.29c.79 1 1.58 2 2.39 3.05Zm328.07-3.3-9.53-7.29c.79-1 1.56-2.06 2.32-3.1l9.67 7.11c-.78 1.1-1.63 2.19-2.46 3.28Zm-335.47-6.57c-.79-1.12-1.56-2.25-2.33-3.38l9.94-6.72c.73 1.07 1.46 2.13 2.21 3.19Zm342.66-3.43-9.94-6.71c.72-1.07 1.43-2.14 2.13-3.23l10.07 6.52c-.77 1.19-1.49 2.29-2.26 3.42Zm-349.46-6.86c-.72-1.17-1.43-2.34-2.13-3.52l10.32-6.12c.66 1.12 1.33 2.22 2 3.32Zm356-3.54-10.32-6.11c.65-1.11 1.3-2.22 1.93-3.35l10.45 5.92c-.64 1.19-1.32 2.37-2.02 3.54Zm-362.19-7.14c-.65-1.21-1.29-2.43-1.92-3.65l10.67-5.49c.59 1.15 1.2 2.3 1.81 3.43ZM393 303.07l-10.66-5.49c.58-1.15 1.16-2.3 1.73-3.46l10.77 5.29a56.93 56.93 0 0 1-1.84 3.66Zm-373.68-7.42c-.58-1.25-1.14-2.5-1.7-3.75l11-4.85c.52 1.18 1.06 2.36 1.6 3.54Zm379-3.67-11-4.86c.52-1.17 1-2.35 1.52-3.54l11.16 4.63c-.56 1.26-1.1 2.52-1.65 3.79Zm-383.88-7.69c-.5-1.27-1-2.56-1.47-3.85l11.25-4.18c.45 1.22.91 2.43 1.39 3.63Zm388.56-3.7-11.24-4.19c.45-1.2.89-2.42 1.31-3.64l11.33 4c-.48 1.24-.95 2.55-1.4 3.83Zm-392.75-7.93c-.42-1.3-.84-2.61-1.24-3.93l11.48-3.5c.38 1.24.77 2.47 1.17 3.7Zm396.68-3.74-11.47-3.51c.37-1.24.74-2.48 1.09-3.72l11.54 3.31c-.37 1.29-.76 2.61-1.16 3.92Zm-400.16-8.1c-.35-1.32-.68-2.65-1-4L17.44 254c.3 1.25.61 2.5.94 3.75ZM410.18 257l-11.66-2.83c.3-1.25.59-2.5.87-3.77l11.72 2.6c-.29 1.36-.6 2.7-.93 4ZM4 248.81c-.27-1.34-.53-2.69-.77-4l11.82-2.11c.22 1.27.46 2.54.71 3.8ZM412.72 245l-11.81-2.12c.23-1.27.44-2.54.65-3.82l11.85 1.89q-.33 2.05-.69 4.05ZM2 236.65c-.19-1.35-.36-2.71-.52-4.08l11.92-1.4c.15 1.28.31 2.56.49 3.84Zm412.58-3.88-11.92-1.41c.15-1.28.29-2.57.42-3.86l11.92 1.19c-.15 1.36-.3 2.73-.46 4.08ZM.64 224.4c-.11-1.36-.2-2.73-.28-4.1l12-.7c.07 1.29.16 2.58.26 3.87Zm415-3.9-12-.71c.08-1.29.14-2.58.19-3.88l12 .49c-.05 1.37-.12 2.74-.2 4.1ZM0 212.09V207.61h12v4.25Zm416-3.91h-12v-3.87l12-.22V208Zm-403.84-8.3-12-.5c.06-1.37.13-2.73.21-4.1l12 .73c-.09 1.28-.15 2.57-.21 3.87Zm391.51-3.32c-.07-1.29-.16-2.58-.26-3.87l12-.92c.1 1.36.19 2.73.27 4.1ZM13 188.29l-12-1.2c.13-1.36.28-2.72.44-4.08l11.92 1.43c-.11 1.28-.25 2.56-.36 3.85ZM402.66 185c-.15-1.28-.31-2.56-.48-3.83l11.89-1.64q.27 2 .51 4.08Zm-388.19-8.23-11.85-1.9q.33-2 .69-4.05L15.12 173c-.23 1.22-.44 2.5-.65 3.77ZM401 173.49c-.23-1.27-.47-2.53-.72-3.8l11.72-2.33c.27 1.34.52 2.69.76 4Zm-384.35-8.13-11.72-2.6c.3-1.33.61-2.67.93-4l11.66 2.83c-.3 1.26-.59 2.51-.87 3.77Zm382-3.23c-.3-1.26-.62-2.51-.94-3.76l11.61-3c.34 1.32.68 2.65 1 4Zm-379.11-8L8 150.81c.37-1.31.76-2.63 1.16-3.93l11.48 3.51c-.42 1.24-.79 2.47-1.14 3.72Zm376.07-3.19c-.38-1.24-.77-2.47-1.17-3.71l11.41-3.71c.42 1.31.84 2.62 1.24 3.93ZM23 143l-11.32-4c.46-1.3.92-2.59 1.4-3.87l11.24 4.2c-.44 1.28-.88 2.49-1.32 3.67Zm368.83-3.16c-.44-1.21-.91-2.42-1.38-3.63l11.17-4.39c.5 1.28 1 2.56 1.47 3.85Zm-364.65-7.61-11.07-4.65c.53-1.26 1.07-2.51 1.62-3.76l11 4.87c-.55 1.17-1.06 2.31-1.55 3.54Zm360.3-3.14c-.53-1.18-1.06-2.36-1.6-3.54l10.88-5c.58 1.24 1.14 2.49 1.7 3.75ZM32 121.68l-10.8-5.28c.6-1.23 1.22-2.45 1.84-3.67l10.67 5.51c-.59 1.14-1.17 2.29-1.71 3.44Zm350.5-3.09c-.59-1.15-1.19-2.3-1.81-3.44l10.57-5.69c.65 1.21 1.29 2.42 1.92 3.64Zm-345.11-7.15L27 105.52c.67-1.19 1.36-2.37 2.06-3.55l10.32 6.13c-.71 1.11-1.38 2.22-1.99 3.34Zm339.46-3c-.66-1.11-1.32-2.22-2-3.32l10.2-6.31c.72 1.17 1.43 2.34 2.13 3.52ZM43.4 101.53 33.33 95c.75-1.15 1.5-2.29 2.27-3.42l9.94 6.73c-.72 1.06-1.44 2.14-2.14 3.22Zm327.24-3c-.72-1.07-1.45-2.13-2.2-3.19l9.82-6.91c.78 1.12 1.56 2.25 2.33 3.39ZM50 92l-9.67-7.11c.81-1.11 1.63-2.2 2.46-3.29l9.53 7.3C51.54 89.92 50.76 91 50 92Zm313.86-2.86c-.78-1-1.58-2-2.38-3.06l9.39-7.47c.85 1.07 1.69 2.15 2.53 3.24Zm-306.71-6.3-9.24-7.66c.88-1.06 1.76-2.1 2.66-3.14l9.08 7.85c-.85.98-1.65 1.96-2.5 2.95Zm299.39-2.74c-.85-1-1.7-1.95-2.56-2.91l8.93-8c.92 1 1.82 2 2.72 3.09Zm-291.72-6-8.76-8.19c.94-1 1.88-2 2.84-3l8.6 8.37c-.9.98-1.79 1.91-2.68 2.85Zm283.87-2.6c-.89-.93-1.8-1.84-2.72-2.75l8.45-8.53c1 1 1.93 1.94 2.89 2.92ZM73 65.89l-8.26-8.7c1-.94 2-1.88 3-2.8l8.1 8.86c-.96.87-1.9 1.75-2.84 2.64Zm267.37-2.46-2.89-2.59 7.94-9c1 .91 2 1.82 3.05 2.74ZM81.66 58.14 73.92 49c1-.88 2.1-1.75 3.17-2.62l7.56 9.33c-1.01.77-2 1.59-2.99 2.43Zm249.92-2.29c-1-.82-2-1.62-3-2.42l7.36-9.43q1.62 1.26 3.21 2.55Zm-240.82-5-7.19-9.61c1.1-.82 2.21-1.63 3.32-2.43l7 9.75c-1.05.81-2.1 1.57-3.13 2.34Zm231.6-2.11c-1-.75-2.1-1.49-3.16-2.23l6.8-9.82c1.12.78 2.24 1.56 3.35 2.36Zm-222.09-4.52-6.6-10c1.14-.75 2.29-1.5 3.45-2.23l6.41 10.15c-1.09.67-2.18 1.37-3.26 2.08Zm212.48-1.92c-1.09-.69-2.18-1.37-3.28-2l6.22-10.3q1.76 1.07 3.48 2.16Zm-202.58-4.19-6-10.39c1.19-.69 2.38-1.36 3.58-2l5.8 10.51c-1.14.6-2.26 1.23-3.38 1.88Zm192.61-1.73c-1.13-.62-2.26-1.23-3.4-1.83L305 23.94c1.2.63 2.41 1.28 3.6 1.95ZM120.41 32.6 115 21.87c1.23-.62 2.46-1.22 3.7-1.81l5.2 10.84c-1.17.55-2.33 1.1-3.49 1.7Zm172.07-1.52c-1.16-.56-2.32-1.1-3.5-1.63l5-10.93c1.25.56 2.49 1.14 3.72 1.73ZM131 27.7l-4.72-11c1.26-.54 2.53-1.07 3.81-1.58l4.49 11.12c-1.23.46-2.42.95-3.58 1.46Zm150.92-1.31c-1.19-.49-2.39-1-3.6-1.42l4.3-11.21c1.29.5 2.56 1 3.83 1.52ZM141.8 23.45l-4.05-11.3c1.3-.46 2.6-.92 3.9-1.35l3.83 11.37c-1.23.41-2.48.83-3.68 1.28ZM271 22.33c-1.22-.41-2.45-.81-3.68-1.2L271 9.69c1.31.41 2.61.84 3.91 1.28Zm-118.14-2.48-3.37-11.52q2-.57 4-1.11l3.14 11.58c-1.29.34-2.53.69-3.77 1.05Zm107.05-.92c-1.24-.34-2.49-.67-3.74-1l2.93-11.62c1.33.34 2.66.69 4 1.05Zm-95.81-2-2.68-11.7q2-.45 4-.87l2.44 11.75c-1.24.25-2.51.52-3.76.81Zm84.52-.72c-1.26-.26-2.52-.52-3.79-.76l2.24-11.79c1.35.26 2.69.53 4 .81Zm-73.13-1.53-2-11.84c1.35-.22 2.7-.43 4.06-.63l1.74 11.87c-1.29.18-2.53.38-3.8.59Zm61.7-.52c-1.27-.19-2.55-.37-3.83-.54l1.53-11.9c1.37.18 2.72.37 4.08.57ZM187 13.1l-1.27-11.93c1.35-.15 2.72-.28 4.08-.4l1 12c-1.25.07-2.53.23-3.81.33Zm38.66-.33c-1.28-.11-2.57-.22-3.86-.31l.83-12c1.37.1 2.74.21 4.1.33Zm-27.08-.56L198 .22c1.36-.06 2.73-.11 4.1-.15l.34 12q-1.92.05-3.86.14Zm15.49-.13c-1.29 0-2.58-.07-3.88-.08l.14-12c1.37 0 2.74 0 4.1.08Z"/><path d="M208 396c-103.66 0-188-84.35-188-188S104.34 20 208 20s188 84.33 188 188-84.34 188-188 188Zm0-372C106.54 24 24 106.53 24 208s82.54 184 184 184 184-82.54 184-184S309.46 24 208 24Z"/><path d="m196.7 184.85 13.38-13.38h150.51l-82.35-82.34-95.73 95.72H32l82.35 82.35 72.32-72.31h173.11l-83.62 83.61H125.65L208 360.85l176-176Zm81.54-81.54 58.12 58.13H220.11ZM114.35 253l-58.13-58.11h116.26ZM208 346.66l-58.13-58.12h116.26Z" id="sj_logo"/></g></g></svg>